<svg xmlns="http://www.w3.org/2000/svg" version="1.1" xmlns:xlink="http://www.w3.org/1999/xlink" xmlns:svgjs="http://svgjs.dev/svgjs" width="2000" height="1875" viewBox="0 0 2000 1875"><g transform="matrix(1,0,0,1,0,0)"><svg viewBox="0 0 384 360" data-background-color="#ffffff" preserveAspectRatio="xMidYMid meet" height="1875" width="2000" xmlns="http://www.w3.org/2000/svg" xmlns:xlink="http://www.w3.org/1999/xlink"><g id="tight-bounds" transform="matrix(1,0,0,1,0,0)"><svg viewBox="0 0 384 360" height="360" width="384"><g><svg></svg></g><g><svg viewBox="0 0 384 360" height="360" width="384"><g><path d="M362.354 145.441v-42.24c0-21.12-19.163-38.402-42.587-38.402h-93.208c-15.198 0-28.337-8.831-34.559-21.646-6.222 12.81-19.36 21.646-34.559 21.646h-93.208c-23.424 0-42.587 17.282-42.587 38.402v42.24c0 15.198-8.831 28.337-21.646 34.559 12.81 6.222 21.646 19.36 21.646 34.559v42.24c0 21.12 19.163 38.402 42.587 38.402h93.208c15.198 0 28.337 8.831 34.559 21.646 6.222-12.81 19.36-21.646 34.559-21.646h93.208c23.424 0 42.587-17.282 42.587-38.402v-42.24c0-15.198 8.831-28.337 21.646-34.559-12.81-6.222-21.646-19.36-21.646-34.559z" fill="#8d49b7" fill-rule="nonzero" stroke="none" stroke-width="1" stroke-linecap="butt" stroke-linejoin="miter" stroke-miterlimit="10" stroke-dasharray="" stroke-dashoffset="0" font-family="none" font-weight="none" font-size="none" text-anchor="none" style="mix-blend-mode: normal" data-fill-palette-color="tertiary"></path></g><g transform="matrix(1,0,0,1,140.30318602261048,99)"><svg viewBox="0 0 103.39362795477902 162" height="162" width="103.39362795477902"><g><svg viewBox="0 0 103.39362795477902 162" height="162" width="103.39362795477902"><g><svg viewBox="0 0 103.39362795477902 162" height="162" width="103.39362795477902"><g><svg viewBox="0 0 103.39362795477902 162" height="162" width="103.39362795477902"><g id="textblocktransform"><svg viewBox="0 0 103.39362795477902 162" height="162" width="103.39362795477902" id="textblock"><g><svg viewBox="0 0 103.39362795477902 162" height="162" width="103.39362795477902"><g transform="matrix(1,0,0,1,0,0)"><svg width="103.39362795477902" viewBox="-1.5499999999999998 -45.05 32.05 49.65" height="162" data-palette-color="#ffffff"><path d="M13.55 0.6L13.55 0.6Q9.35 0.6 6.93-1.15 4.5-2.9 3.48-6.08 2.45-9.25 2.45-13.4L2.45-13.4 2.45-27Q2.45-31.3 3.55-34.45 4.65-37.6 7.33-39.33 10-41.05 14.6-41.05L14.6-41.05Q19.1-41.05 21.68-39.55 24.25-38.05 25.35-35.4 26.45-32.75 26.45-29.2L26.45-29.2 26.45-26.6 17.7-26.6 17.7-29.9Q17.7-31.2 17.53-32.3 17.35-33.4 16.73-34.08 16.1-34.75 14.7-34.75L14.7-34.75Q13.25-34.75 12.6-33.98 11.95-33.2 11.78-32.05 11.6-30.9 11.6-29.65L11.6-29.65 11.6-10.9Q11.6-9.55 11.88-8.38 12.15-7.2 12.88-6.48 13.6-5.75 14.95-5.75L14.95-5.75Q16.35-5.75 17.1-6.5 17.85-7.25 18.15-8.45 18.45-9.65 18.45-11L18.45-11 18.45-15.75 14.8-15.75 14.8-21 26.5-21 26.5 0 20.6 0 20.1-3.35Q19.3-1.65 17.75-0.53 16.2 0.6 13.55 0.6Z" opacity="1" transform="matrix(1,0,0,1,0,0)" fill="#ffffff" class="wordmark-text-0" data-fill-palette-color="quaternary" id="text-0"></path></svg></g></svg></g></svg></g></svg></g></svg></g></svg></g></svg></g></svg></g><defs></defs></svg><rect width="384" height="360" fill="none" stroke="none" visibility="hidden"></rect></g></svg></g></svg>